<?xml version="1.0" encoding="UTF-8"?>
<svg id="Layer_2" data-name="Layer 2" xmlns="http://www.w3.org/2000/svg" xmlns:xlink="http://www.w3.org/1999/xlink" viewBox="0 0 171.22 181.24">
  <defs>
    <style>
      .cls-1 {
        fill: url(#radial-gradient-4);
      }

      .cls-2 {
        fill: url(#radial-gradient-3);
      }

      .cls-3 {
        fill: url(#radial-gradient-2);
      }

      .cls-4 {
        fill: url(#linear-gradient-2);
      }

      .cls-5 {
        fill: url(#radial-gradient);
      }

      .cls-6 {
        fill: url(#linear-gradient);
      }

      .cls-7 {
        fill: #0972aa;
      }
    </style>
    <radialGradient id="radial-gradient" cx="23.42" cy="1047.77" fx="23.42" fy="1047.77" r="160.01" gradientTransform="translate(0 1079.94) scale(1 -1)" gradientUnits="userSpaceOnUse">
      <stop offset="0" stop-color="#b0e1f1"/>
      <stop offset="1" stop-color="#0883c4"/>
    </radialGradient>
    <radialGradient id="radial-gradient-2" cx="85.06" cy="1051.96" fx="85.06" fy="1051.96" r="22.34" gradientTransform="translate(-6.92 1057.63) scale(.96 -.96)" gradientUnits="userSpaceOnUse">
      <stop offset="0" stop-color="#61b6e0" stop-opacity="0"/>
      <stop offset=".56" stop-color="#3d99c8" stop-opacity=".56"/>
      <stop offset="1" stop-color="#2b87b8"/>
    </radialGradient>
    <radialGradient id="radial-gradient-3" cx="40.28" cy="991.78" fx="40.28" fy="991.78" r="14.34" gradientTransform="translate(0 1079.94) scale(1 -1)" xlink:href="#radial-gradient-2"/>
    <radialGradient id="radial-gradient-4" cx="137.04" cy="1003.45" fx="137.04" fy="1003.45" r="10.75" gradientTransform="translate(0 1079.94) scale(1 -1)" gradientUnits="userSpaceOnUse">
      <stop offset="0" stop-color="#61b6e0" stop-opacity="0"/>
      <stop offset=".33" stop-color="#49a2d0" stop-opacity=".33"/>
      <stop offset=".75" stop-color="#308ebf" stop-opacity=".75"/>
      <stop offset="1" stop-color="#2b87b8"/>
    </radialGradient>
    <linearGradient id="linear-gradient" x1="169.6" y1="1103.47" x2="86.86" y2="1186.2" gradientTransform="translate(0 -1006)" gradientUnits="userSpaceOnUse">
      <stop offset="0" stop-color="#f3f3f3"/>
      <stop offset=".27" stop-color="#f5f6f6"/>
      <stop offset=".49" stop-color="#fff"/>
      <stop offset=".49" stop-color="#fff"/>
      <stop offset=".71" stop-color="#f5f6f6"/>
      <stop offset="1" stop-color="#f3f3f3"/>
    </linearGradient>
    <linearGradient id="linear-gradient-2" x1="153.74" y1="1119.28" x2="98.97" y2="1174.05" gradientTransform="translate(0 -1006)" gradientUnits="userSpaceOnUse">
      <stop offset="0" stop-color="#b49e60"/>
      <stop offset=".11" stop-color="#b49e62"/>
      <stop offset=".19" stop-color="#b7a46b"/>
      <stop offset=".28" stop-color="#bead7e"/>
      <stop offset=".35" stop-color="#c5b897"/>
      <stop offset=".43" stop-color="#ccc5b5"/>
      <stop offset=".45" stop-color="#cfc9bd"/>
      <stop offset=".48" stop-color="#cac3b2"/>
      <stop offset=".56" stop-color="#c3b694"/>
      <stop offset=".66" stop-color="#bdab7c"/>
      <stop offset=".75" stop-color="#b7a26a"/>
      <stop offset=".86" stop-color="#b49e62"/>
      <stop offset="1" stop-color="#b49e60"/>
    </linearGradient>
  </defs>
  <g id="Layer_1-2" data-name="Layer 1">
    <g>
      <path class="cls-5" d="M82.97,0C37.15,0,0,37.15,0,82.97s37.15,82.97,82.97,82.97,82.97-37.15,82.97-82.97S128.8,0,82.97,0Z"/>
      <path class="cls-3" d="M70.53,24.89c-6.87,0-12.45,5.57-12.45,12.45s5.57,12.45,12.45,12.45,12.45-5.57,12.45-12.45-5.57-12.45-12.45-12.45Z"/>
      <path class="cls-2" d="M37.34,74.67c-4.58,0-8.3,3.71-8.3,8.3s3.71,8.3,8.3,8.3,8.3-3.71,8.3-8.3-3.71-8.3-8.3-8.3Z"/>
      <path class="cls-1" d="M134.83,66.38c-3.44,0-6.22,2.79-6.22,6.22s2.79,6.22,6.22,6.22,6.22-2.79,6.22-6.22-2.79-6.22-6.22-6.22Z"/>
    </g>
    <g id="Layer_2-2" data-name="Layer 2-2">
      <g>
        <path id="outline" class="cls-6" d="M158.03,111.58c6.77,7.41,10.93,17.26,10.93,28.1,0,22.95-18.61,41.57-41.57,41.57-10.48,0-20.15-3.88-27.47-10.39-2.26,2.35-4.79,4.51-7.68,6.42l-4.97,3.34,2.26-5.51c1.35-3.25,2.89-6.77,4.7-10.3-5.25-6.96-8.41-15.64-8.41-25.12,0-22.95,18.61-41.57,41.57-41.57,9.22,0,17.71,2.99,24.58,8.04,3.53-1.63,7.23-3.08,11.02-4.34l8.22-2.71-6.51,5.79c-2.35,2.08-4.6,4.34-6.68,6.68h0Z"/>
        <path id="ring" class="cls-4" d="M148.53,107.05c-1.17.54-2.26,1.17-3.43,1.72l-.45.28c-16.9-9.59-38.32-3.63-47.8,13.37-6.24,11.02-6.05,24.49.36,35.24-.72,1.26-1.35,2.53-1.99,3.71-12.01-17.81-7.31-41.94,10.48-53.95,12.93-8.68,29.73-8.86,42.83-.37ZM156.67,114.19c-.82,1-1.63,1.99-2.43,2.99,12.56,14.82,10.58,36.96-4.25,49.43-13.19,11.02-32.35,10.93-45.37-.18-.45.63-1,1.26-1.54,1.99-.28.36-.54.63-.82.91,16.35,13.83,40.94,11.75,54.76-4.6,12.38-14.55,12.29-36.06-.36-50.51h0Z"/>
        <path id="feather" class="cls-7" d="M101.28,166.6c4.16-5.24,5.88-10.04,6.96-12.75,5.79-14.01,17.35-23.14,30.9-33.89,4.97-3.97,10.21-7.5,15.72-10.75-.72.54-1.99,1.63-3.53,3.08-11.75,11.39-11.3,22.51-21.42,29.64-2.43,1.72-5.24,2.99-8.13,3.8l8.95,2.89c-5.88,2.43-8.76,3.62-10.21,4.16-7.41,2.71-11.39,3.08-11.39,3.34.09.54,12.29,1.26,23.77-5.33,3.62-2.17,6.96-4.79,9.76-7.96-.82.63-1.72,1.08-2.62,1.54-2.62,1.08-5.42,1.26-8.13.63,1.08-.36,2.17-.82,3.34-1.26,4.43-2.17,8.31-5.16,11.47-8.95l-2.17,1.35c-1.72,1-3.53,1.63-5.42,2.08,5.42-13.38,13.73-25.3,24.4-34.98-6.05,1.99-11.84,4.51-17.44,7.59-32.44,18.07-48.08,48.7-54.85,64.97,3.8-2.53,7.23-5.6,10.04-9.22Z"/>
      </g>
    </g>
  </g>
</svg>