<?xml version="1.0" encoding="UTF-8"?>
<svg id="Layer_2" data-name="Layer 2" xmlns="http://www.w3.org/2000/svg" xmlns:xlink="http://www.w3.org/1999/xlink" viewBox="0 0 360 72.4">
  <defs>
    <linearGradient id="linear-gradient" x1="72.95" y1="-.55" x2=".91" y2="71.49" gradientUnits="userSpaceOnUse">
      <stop offset="0" stop-color="#f2f2f2"/>
      <stop offset=".27" stop-color="#f5f5f5"/>
      <stop offset=".49" stop-color="#fff"/>
      <stop offset=".49" stop-color="#fefefe"/>
      <stop offset=".71" stop-color="#f5f5f5"/>
      <stop offset="1" stop-color="#f2f2f2"/>
    </linearGradient>
    <linearGradient id="linear-gradient-2" x1="59.14" y1="13.21" x2="11.45" y2="60.9" gradientUnits="userSpaceOnUse">
      <stop offset="0" stop-color="#b59e5f"/>
      <stop offset=".11" stop-color="#b59f62"/>
      <stop offset=".19" stop-color="#b8a46c"/>
      <stop offset=".28" stop-color="#bdac7d"/>
      <stop offset=".35" stop-color="#c4b796"/>
      <stop offset=".43" stop-color="#ccc5b5"/>
      <stop offset=".45" stop-color="#cfc9be"/>
      <stop offset=".48" stop-color="#cbc3b1"/>
      <stop offset=".56" stop-color="#c3b593"/>
      <stop offset=".66" stop-color="#bdab7c"/>
      <stop offset=".75" stop-color="#b8a36b"/>
      <stop offset=".86" stop-color="#b59f62"/>
      <stop offset="1" stop-color="#b59e5f"/>
    </linearGradient>
  </defs>
  <g id="Layer_2-2" data-name="Layer 2">
    <g id="Layer_1-2" data-name="Layer 1-2">
      <g>
        <g>
          <path id="outline" d="M62.88,11.73c5.9,6.45,9.52,15.03,9.52,24.47,0,19.99-16.21,36.2-36.2,36.2-9.13,0-17.55-3.38-23.92-9.05-1.97,2.05-4.17,3.93-6.69,5.59l-4.33,2.91,1.97-4.8c1.18-2.83,2.52-5.9,4.09-8.97C2.75,52.02,0,44.46,0,36.2,0,16.21,16.21,0,36.2,0c8.03,0,15.42,2.6,21.41,7,3.07-1.42,6.3-2.68,9.6-3.78l7.16-2.36-5.67,5.04c-2.05,1.81-4.01,3.78-5.82,5.82Z" style="fill: url(#linear-gradient);"/>
          <path id="ring" d="M54.61,7.79c-1.02.47-1.97,1.02-2.99,1.5l-.39.24C36.51,1.18,17.86,6.37,9.6,21.17c-5.43,9.6-5.27,21.33.31,30.69-.63,1.1-1.18,2.2-1.73,3.23C-2.28,39.58,1.81,18.57,17.31,8.11,28.57.55,43.2.39,54.61,7.79ZM61.7,14.01c-.71.87-1.42,1.73-2.12,2.6,10.94,12.91,9.21,32.19-3.7,43.05-11.49,9.6-28.17,9.52-39.51-.16-.39.55-.87,1.1-1.34,1.73-.24.31-.47.55-.71.79,14.24,12.04,35.65,10.23,47.69-4.01,10.78-12.67,10.7-31.4-.31-43.99Z" style="fill: url(#linear-gradient-2);"/>
          <path id="feather" d="M13.46,59.65c3.62-4.56,5.12-8.74,6.06-11.1,5.04-12.2,15.11-20.15,26.91-29.51,4.33-3.46,8.89-6.53,13.69-9.36-.63.47-1.73,1.42-3.07,2.68-10.23,9.92-9.84,19.6-18.65,25.81-2.12,1.5-4.56,2.6-7.08,3.31l7.79,2.52c-5.12,2.12-7.63,3.15-8.89,3.62-6.45,2.36-9.92,2.68-9.92,2.91.08.47,10.7,1.1,20.7-4.64,3.15-1.89,6.06-4.17,8.5-6.93-.71.55-1.5.94-2.28,1.34-2.28.94-4.72,1.1-7.08.55.94-.31,1.89-.71,2.91-1.1,3.86-1.89,7.24-4.49,9.99-7.79l-1.89,1.18c-1.5.87-3.07,1.42-4.72,1.81,4.72-11.65,11.96-22.03,21.25-30.46-5.27,1.73-10.31,3.93-15.19,6.61C24.24,26.84,10.62,53.51,4.72,67.68c3.31-2.2,6.3-4.88,8.74-8.03Z" style="fill: #00517a;"/>
        </g>
        <path id="txt" d="M83.1,65.79h.79c4.72,0,6.69-1.57,6.69-6.3V19.36h4.49v40.37c0,6.77-3.31,10.31-10.78,10.31h-1.18v-4.25h0ZM103.09,37.85c0-11.33,8.18-19.28,18.41-19.28,6.22,0,11.73,2.99,14.32,7.63v-6.93h4.25v36.99h-4.17v-6.85c-2.52,4.64-8.03,7.55-14.32,7.55-10.31,0-18.49-7.95-18.49-19.12h0ZM121.98,52.73c7.55,0,13.85-5.19,13.85-14.87s-6.3-14.95-13.85-14.95c-8.26,0-14.32,6.3-14.32,14.95s6.06,14.87,14.32,14.87ZM161.09,53.99l-15.42-34.63h5.04l12.75,29.35,11.65-29.35h4.8l-20.62,50.68h-4.8l6.61-16.05h0ZM186.9,5.04h12.83c9.76,0,15.9,4.72,15.9,12.75,0,5.51-2.91,9.6-7.87,11.57,6.14,1.73,9.68,6.22,9.68,12.67,0,8.74-6.37,14.24-16.37,14.24h-14.24l.08-51.23h0ZM199.81,27.54c7.08,0,11.17-3.54,11.17-9.29s-4.17-8.97-11.17-8.97h-8.11v18.26h8.11ZM200.99,52.02c7.32,0,11.73-3.46,11.73-10.07s-4.33-10.07-12.28-10.07h-8.74v20.15h9.29ZM226.25,19.28h4.49v36.99h-4.49V19.28ZM251.43,19.28h3.93v4.17h-3.54c-4.72,0-6.61,1.65-6.61,6.69v26.05h-4.49v-25.97c0-7.4,3.46-10.94,10.7-10.94h0ZM257.18,37.85c0-11.33,8.18-19.28,18.41-19.28,6.14,0,11.41,2.83,14.09,7.24-.08-2.6-.16-5.19-.16-7.87V2.36h4.49v53.91h-4.17v-6.85c-2.52,4.64-8.03,7.55-14.32,7.55-10.15,0-18.34-7.95-18.34-19.12h0ZM276.06,52.73c7.55,0,13.85-5.19,13.85-14.87s-6.3-14.95-13.85-14.95c-8.26,0-14.32,6.3-14.32,14.95s6.06,14.87,14.32,14.87ZM92.86,8.26c1.5,0,2.75,1.26,2.75,2.75s-1.26,2.75-2.75,2.75-2.75-1.26-2.75-2.75,1.18-2.75,2.75-2.75ZM228.45,8.26c1.57,0,2.75,1.26,2.75,2.75s-1.26,2.75-2.75,2.75-2.75-1.26-2.75-2.75,1.26-2.75,2.75-2.75Z" style="fill: #f2f2f2;"/>
        <text x="296" y="56" style="font-family: -apple-system, BlinkMacSystemFont, 'Segoe UI', Helvetica, Arial, sans-serif; font-size: 14px; font-weight: 500; fill: #58a6ff;">Projects</text>
      </g>
    </g>
  </g>
</svg>