<svg fill="#4D4D4D" xmlns="http://www.w3.org/2000/svg"  viewBox="0 0 48 48" width="24px" height="24px"><path d="M 11.5 6 C 8.468 6 6 8.468 6 11.5 L 6 36.5 C 6 39.532 8.468 42 11.5 42 L 16.820312 42 C 16.028313 41.177 15.453641 40.147 15.181641 39 L 11.5 39 C 10.121 39 9 37.879 9 36.5 L 9 11.5 C 9 10.121 10.121 9 11.5 9 L 15.181641 9 C 15.454641 7.853 16.028312 6.823 16.820312 6 L 11.5 6 z M 21.5 6 C 19.032499 6 17 8.0324991 17 10.5 L 17 37.5 C 17 39.967501 19.032499 42 21.5 42 L 26.5 42 C 28.967501 42 31 39.967501 31 37.5 L 31 10.5 C 31 8.0324991 28.967501 6 26.5 6 L 21.5 6 z M 31.179688 6 C 31.971688 6.823 32.545359 7.853 32.818359 9 L 36.5 9 C 37.879 9 39 10.121 39 11.5 L 39 36.5 C 39 37.879 37.879 39 36.5 39 L 32.818359 39 C 32.545359 40.147 31.971688 41.177 31.179688 42 L 36.5 42 C 39.532 42 42 39.532 42 36.5 L 42 11.5 C 42 8.468 39.532 6 36.5 6 L 31.179688 6 z M 21.5 9 L 26.5 9 C 27.346499 9 28 9.6535009 28 10.5 L 28 37.5 C 28 38.346499 27.346499 39 26.5 39 L 21.5 39 C 20.653501 39 20 38.346499 20 37.5 L 20 10.5 C 20 9.6535009 20.653501 9 21.5 9 z"/></svg>