<svg xmlns="http://www.w3.org/2000/svg" xmlns:xlink="http://www.w3.org/1999/xlink" viewBox="0,0,256,256" width="48px" height="48px" fill-rule="nonzero"><defs><linearGradient x1="4.614" y1="7.741" x2="42.936" y2="15.533" gradientUnits="userSpaceOnUse" id="color-1"><stop offset="0" stop-color="#0077d2"></stop><stop offset="1" stop-color="#0b59a2"></stop></linearGradient><linearGradient x1="16" y1="11.5" x2="42" y2="11.5" gradientUnits="userSpaceOnUse" id="color-2"><stop offset="0" stop-color="#7dd8f3"></stop><stop offset="1" stop-color="#45b0d0"></stop></linearGradient><linearGradient x1="6.751" y1="10.416" x2="8.032" y2="12.269" gradientUnits="userSpaceOnUse" id="color-3"><stop offset="0" stop-color="#75daff"></stop><stop offset="1" stop-color="#49bef1"></stop></linearGradient><linearGradient x1="11.751" y1="10.416" x2="13.032" y2="12.269" gradientUnits="userSpaceOnUse" id="color-4"><stop offset="0" stop-color="#75daff"></stop><stop offset="1" stop-color="#49bef1"></stop></linearGradient></defs><g fill="none" fill-rule="nonzero" stroke="none" stroke-width="1" stroke-linecap="butt" stroke-linejoin="miter" stroke-miterlimit="10" stroke-dasharray="" stroke-dashoffset="0" font-family="none" font-weight="none" font-size="none" text-anchor="none" style="mix-blend-mode: normal"><g transform="scale(5.33333,5.33333)"><path d="M4,38v-23h40v23c0,1.1 -0.9,2 -2,2h-36c-1.1,0 -2,-0.9 -2,-2z" fill="#e1e1e1"></path><path d="M44,10v5h-40v-5c0,-1.1 0.9,-2 2,-2h36c1.1,0 2,0.9 2,2z" fill="url(#color-1)"></path><path d="M16.5,13h25c0.276,0 0.5,-0.224 0.5,-0.5v-2c0,-0.276 -0.224,-0.5 -0.5,-0.5h-25c-0.276,0 -0.5,0.224 -0.5,0.5v2c0,0.276 0.224,0.5 0.5,0.5z" fill="url(#color-2)"></path><circle cx="7.5" cy="11.5" r="1.5" fill="url(#color-3)"></circle><circle cx="12.5" cy="11.5" r="1.5" fill="url(#color-4)"></circle><path d="M27,32.414l-7,-7l-7.293,7.293l-1.414,-1.414l8.707,-8.707l7,7l8.293,-8.293l1.414,1.414z" fill="#0d62ab"></path><circle cx="36" cy="22" r="2" fill="#199be2"></circle><circle cx="27" cy="31" r="2" fill="#199be2"></circle><circle cx="20" cy="24" r="2" fill="#199be2"></circle><circle cx="12" cy="32" r="2" fill="#199be2"></circle></g></g></svg>