<svg fill="#4D4D4D" xmlns="http://www.w3.org/2000/svg"  viewBox="0 0 48 48" width="24px" height="24px"><path d="M 8.5 6 C 7.1364058 6 6 7.1364058 6 8.5 L 6 11.589844 C 6 13.886494 7.0554772 16.058837 8.859375 17.480469 A 1.50015 1.50015 0 0 0 8.8652344 17.484375 L 19 25.392578 L 19 40.5 A 1.50015 1.50015 0 0 0 21.371094 41.720703 L 28.371094 36.720703 A 1.50015 1.50015 0 0 0 29 35.5 L 29 25.392578 L 39.134766 17.484375 A 1.50015 1.50015 0 0 0 39.140625 17.480469 C 40.944482 16.058831 42 13.886494 42 11.589844 L 42 8.5 C 42 7.1364058 40.863594 6 39.5 6 L 8.5 6 z M 9 9 L 39 9 L 39 11.589844 C 39 12.969193 38.369258 14.268678 37.285156 15.123047 L 26.578125 23.476562 A 1.50015 1.50015 0 0 0 26 24.660156 L 26 34.728516 L 22 37.585938 L 22 24.660156 A 1.50015 1.50015 0 0 0 21.421875 23.476562 L 10.714844 15.123047 C 9.6307412 14.268678 9 12.969193 9 11.589844 L 9 9 z"/></svg>