<svg fill="#4D4D4D" xmlns="http://www.w3.org/2000/svg"  viewBox="0 0 48 48" width="24px" height="24px"><path d="M 10.5 5 C 7.468 5 5 7.468 5 10.5 L 5 31.5 C 5 33.632 6.222 35.479578 8 36.392578 L 8 10.5 C 8 9.121 9.121 8 10.5 8 L 36.392578 8 C 35.479578 6.222 33.632 5 31.5 5 L 10.5 5 z M 16.5 11 C 13.468 11 11 13.468 11 16.5 L 11 37.5 C 11 40.532 13.468 43 16.5 43 L 24.767578 43 C 24.053578 42.088 23.452 41.084 23 40 L 16.5 40 C 15.121 40 14 38.879 14 37.5 L 14 16.5 C 14 15.121 15.121 14 16.5 14 L 37.5 14 C 38.879 14 40 15.121 40 16.5 L 40 23 C 41.084 23.452 42.088 24.053578 43 24.767578 L 43 16.5 C 43 13.468 40.532 11 37.5 11 L 16.5 11 z M 35 24 C 28.925 24 24 28.925 24 35 C 24 41.075 28.925 46 35 46 C 41.075 46 46 41.075 46 35 C 46 28.925 41.075 24 35 24 z M 35 27 C 35.552 27 36 27.448 36 28 L 36 34 L 42 34 C 42.552 34 43 34.448 43 35 C 43 35.552 42.552 36 42 36 L 36 36 L 36 42 C 36 42.552 35.552 43 35 43 C 34.448 43 34 42.552 34 42 L 34 36 L 28 36 C 27.448 36 27 35.552 27 35 C 27 34.448 27.448 34 28 34 L 34 34 L 34 28 C 34 27.448 34.448 27 35 27 z"/></svg>