<svg xmlns="http://www.w3.org/2000/svg" xmlns:xlink="http://www.w3.org/1999/xlink" viewBox="0,0,256,256" width="48px" height="48px" fill-rule="nonzero"><defs><linearGradient x1="8.608" y1="11.608" x2="15.584" y2="18.584" gradientUnits="userSpaceOnUse" id="color-1"><stop offset="0" stop-color="#efba32"></stop><stop offset="1" stop-color="#e4a11e"></stop></linearGradient><linearGradient x1="4.431" y1="26.482" x2="19.998" y2="42.048" gradientUnits="userSpaceOnUse" id="color-2"><stop offset="0" stop-color="#efba32"></stop><stop offset="1" stop-color="#e4a11e"></stop></linearGradient><linearGradient x1="32.608" y1="11.608" x2="39.584" y2="18.584" gradientUnits="userSpaceOnUse" id="color-3"><stop offset="0" stop-color="#efba32"></stop><stop offset="1" stop-color="#e4a11e"></stop></linearGradient><linearGradient x1="28.431" y1="26.482" x2="43.998" y2="42.048" gradientUnits="userSpaceOnUse" id="color-4"><stop offset="0" stop-color="#efba32"></stop><stop offset="1" stop-color="#e4a11e"></stop></linearGradient><linearGradient x1="20.608" y1="7.608" x2="27.584" y2="14.584" gradientUnits="userSpaceOnUse" id="color-5"><stop offset="0" stop-color="#a96f0d"></stop><stop offset="1" stop-color="#8c6716"></stop></linearGradient><linearGradient x1="21.181" y1="19.057" x2="26.202" y2="44.16" gradientUnits="userSpaceOnUse" id="color-6"><stop offset="0" stop-color="#a96f0d"></stop><stop offset="1" stop-color="#8c6716"></stop></linearGradient></defs><g fill="none" fill-rule="nonzero" stroke="none" stroke-width="1" stroke-linecap="butt" stroke-linejoin="miter" stroke-miterlimit="10" stroke-dasharray="" stroke-dashoffset="0" font-family="none" font-weight="none" font-size="none" text-anchor="none" style="mix-blend-mode: normal"><g transform="scale(5.33333,5.33333)"><circle cx="12" cy="15" r="5" fill="url(#color-1)"></circle><path d="M12,22c-4.971,0 -9,4.029 -9,9v9c0,1.105 0.895,2 2,2h14c1.105,0 2,-0.895 2,-2v-9c0,-4.971 -4.029,-9 -9,-9z" fill="url(#color-2)"></path><circle cx="36" cy="15" r="5" fill="url(#color-3)"></circle><path d="M36,22c-4.971,0 -9,4.029 -9,9v9c0,1.105 0.895,2 2,2h14c1.105,0 2,-0.895 2,-2v-9c0,-4.971 -4.029,-9 -9,-9z" fill="url(#color-4)"></path><circle cx="24" cy="11" r="5" fill="url(#color-5)"></circle><path d="M35,40v-13c0,-1.701 -0.399,-3.307 -1.092,-4.746c-3.96,0.945 -6.908,4.497 -6.908,8.746v9c0,1.105 0.895,2 2,2h5.444c0.344,-0.591 0.556,-1.268 0.556,-2z" fill="#000000" opacity="0.05"></path><path d="M34.333,40v-13c0,-1.621 -0.385,-3.15 -1.053,-4.517c-3.631,1.119 -6.28,4.504 -6.28,8.517v9c0,1.105 0.895,2 2,2h4.296c0.598,-0.394 1.037,-1.144 1.037,-2z" fill="#000000" opacity="0.067"></path><path d="M33.667,40v-13c0,-1.542 -0.371,-2.994 -1.014,-4.288c-3.303,1.293 -5.653,4.511 -5.653,8.288v9c0,1.105 0.895,2 2,2h3.148c0.851,-0.197 1.519,-1.02 1.519,-2z" fill="#000000" opacity="0.09"></path><path d="M13,40v-13c0,-1.701 0.399,-3.307 1.092,-4.746c3.96,0.945 6.908,4.497 6.908,8.746v9c0,1.105 -0.895,2 -2,2h-5.444c-0.344,-0.591 -0.556,-1.268 -0.556,-2z" fill="#000000" opacity="0.05"></path><path d="M13.667,40v-13c0,-1.621 0.385,-3.15 1.053,-4.517c3.631,1.119 6.28,4.504 6.28,8.517v9c0,1.105 -0.895,2 -2,2h-4.296c-0.598,-0.394 -1.037,-1.144 -1.037,-2z" fill="#000000" opacity="0.067"></path><path d="M14.333,40v-13c0,-1.542 0.371,-2.994 1.014,-4.288c3.303,1.293 5.653,4.511 5.653,8.288v9c0,1.105 -0.895,2 -2,2h-3.148c-0.851,-0.197 -1.519,-1.02 -1.519,-2z" fill="#000000" opacity="0.09"></path><path d="M24,18c-4.971,0 -9,4.029 -9,9v13c0,1.105 0.895,2 2,2h14c1.105,0 2,-0.895 2,-2v-13c0,-4.971 -4.029,-9 -9,-9z" fill="url(#color-6)"></path></g></g></svg>