<svg fill="#4D4D4D" xmlns="http://www.w3.org/2000/svg"  viewBox="0 0 48 48" width="24px" height="24px"><path d="M 8.5 7 C 5.4802259 7 3 9.4802259 3 12.5 L 3 35.5 C 3 38.519774 5.4802259 41 8.5 41 L 39.5 41 C 42.519774 41 45 38.519774 45 35.5 L 45 12.5 C 45 9.4802259 42.519774 7 39.5 7 L 8.5 7 z M 8.5 10 L 39.5 10 C 40.898226 10 42 11.101774 42 12.5 L 42 35.5 C 42 36.898226 40.898226 38 39.5 38 L 8.5 38 C 7.1017741 38 6 36.898226 6 35.5 L 6 12.5 C 6 11.101774 7.1017741 10 8.5 10 z M 10.5 13 A 1.50015 1.50015 0 0 0 9 14.5 L 9 22.5 A 1.50015 1.50015 0 1 0 12 22.5 L 12 16 L 18.5 16 A 1.50015 1.50015 0 1 0 18.5 13 L 10.5 13 z M 37.476562 23.978516 A 1.50015 1.50015 0 0 0 36 25.5 L 36 32 L 29.5 32 A 1.50015 1.50015 0 1 0 29.5 35 L 37.5 35 A 1.50015 1.50015 0 0 0 39 33.5 L 39 25.5 A 1.50015 1.50015 0 0 0 37.476562 23.978516 z"/></svg>