<svg fill="#4D4D4D" xmlns="http://www.w3.org/2000/svg"  viewBox="0 0 48 48" width="24px" height="24px"><path d="M 13.478516 5 A 1.50015 1.50015 0 0 0 12.439453 5.4394531 L 2.4394531 15.439453 A 1.50015 1.50015 0 1 0 4.5605469 17.560547 L 12 10.121094 L 12 31.5 A 1.50015 1.50015 0 1 0 15 31.5 L 15 10.121094 L 22.439453 17.560547 A 1.50015 1.50015 0 1 0 24.560547 15.439453 L 14.560547 5.4394531 A 1.50015 1.50015 0 0 0 13.478516 5 z M 34.5 5 A 1.5 1.5 0 0 0 34.5 8 A 1.5 1.5 0 0 0 34.5 5 z M 34.5 10 A 1.5 1.5 0 0 0 34.5 13 A 1.5 1.5 0 0 0 34.5 10 z M 34.476562 14.978516 A 1.50015 1.50015 0 0 0 33 16.5 L 33 36.878906 L 25.560547 29.439453 A 1.50015 1.50015 0 0 0 24.484375 28.984375 A 1.50015 1.50015 0 0 0 23.439453 31.560547 L 33.439453 41.560547 A 1.50015 1.50015 0 0 0 35.560547 41.560547 L 45.560547 31.560547 A 1.50015 1.50015 0 1 0 43.439453 29.439453 L 36 36.878906 L 36 16.5 A 1.50015 1.50015 0 0 0 34.476562 14.978516 z M 13.5 35 A 1.5 1.5 0 0 0 13.5 38 A 1.5 1.5 0 0 0 13.5 35 z M 13.5 40 A 1.5 1.5 0 0 0 13.5 43 A 1.5 1.5 0 0 0 13.5 40 z"/></svg>