<?xml version="1.0" encoding="UTF-8"?>
<svg xmlns="http://www.w3.org/2000/svg" xmlns:xlink="http://www.w3.org/1999/xlink" width="36pt" height="36pt" viewBox="0 0 36 36" version="1.1">
<defs>
<linearGradient id="linear0" gradientUnits="userSpaceOnUse" x1="16.767" y1="8" x2="31.233999" y2="8" gradientTransform="matrix(0.75,0,0,0.75,0,0)">
<stop offset="0" style="stop-color:rgb(11.372549%,34.901962%,70.19608%);stop-opacity:1;"/>
<stop offset="1" style="stop-color:rgb(9.803922%,35.686275%,73.725492%);stop-opacity:1;"/>
</linearGradient>
<linearGradient id="linear1" gradientUnits="userSpaceOnUse" x1="43.983002" y1="15.504" x2="31.607" y2="15.504" gradientTransform="matrix(0.75,0,0,0.75,0,0)">
<stop offset="0" style="stop-color:rgb(16.470589%,64.313728%,95.686275%);stop-opacity:1;"/>
<stop offset="0.301" style="stop-color:rgb(13.725491%,61.56863%,93.725491%);stop-opacity:1;"/>
<stop offset="0.749" style="stop-color:rgb(5.490196%,53.333336%,88.627452%);stop-opacity:1;"/>
<stop offset="1" style="stop-color:rgb(0%,47.843137%,85.09804%);stop-opacity:1;"/>
</linearGradient>
<linearGradient id="linear2" gradientUnits="userSpaceOnUse" x1="-228.016998" y1="15.504" x2="-240.393005" y2="15.504" gradientTransform="matrix(-0.75,0,0,0.75,-168,0)">
<stop offset="0" style="stop-color:rgb(16.470589%,64.313728%,95.686275%);stop-opacity:1;"/>
<stop offset="0.301" style="stop-color:rgb(13.725491%,61.56863%,93.725491%);stop-opacity:1;"/>
<stop offset="0.749" style="stop-color:rgb(5.490196%,53.333336%,88.627452%);stop-opacity:1;"/>
<stop offset="1" style="stop-color:rgb(0%,47.843137%,85.09804%);stop-opacity:1;"/>
</linearGradient>
<linearGradient id="linear3" gradientUnits="userSpaceOnUse" x1="12" y1="24" x2="42" y2="24" gradientTransform="matrix(0.75,0,0,0.75,0,0)">
<stop offset="0" style="stop-color:rgb(25.882354%,63.921571%,94.901961%);stop-opacity:1;"/>
<stop offset="1" style="stop-color:rgb(25.882354%,64.313728%,92.156863%);stop-opacity:1;"/>
</linearGradient>
<linearGradient id="linear4" gradientUnits="userSpaceOnUse" x1="12" y1="40" x2="36" y2="40" gradientTransform="matrix(0.75,0,0,0.75,0,0)">
<stop offset="0" style="stop-color:rgb(18.82353%,47.450981%,83.92157%);stop-opacity:1;"/>
<stop offset="1" style="stop-color:rgb(16.078432%,48.627451%,82.352942%);stop-opacity:1;"/>
</linearGradient>
</defs>
<g id="surface483">
<path style=" stroke:none;fill-rule:nonzero;fill:url(#linear0);" d="M 22.5 3.75 L 13.5 3.75 L 12.574219 8.25 L 23.425781 8.25 Z M 22.5 3.75 "/>
<path style=" stroke:none;fill-rule:nonzero;fill:url(#linear1);" d="M 29.933594 16.980469 L 32.824219 13.507812 C 33.066406 13.214844 33.054688 12.789062 32.796875 12.515625 L 26.683594 6.003906 L 24.136719 13.929688 L 28.941406 17.125 C 29.257812 17.335938 29.6875 17.273438 29.933594 16.980469 Z M 29.933594 16.980469 "/>
<path style=" stroke:none;fill-rule:nonzero;fill:url(#linear2);" d="M 6.066406 16.980469 L 3.175781 13.507812 C 2.933594 13.214844 2.945312 12.789062 3.203125 12.515625 L 9.316406 6.003906 L 11.863281 13.929688 L 7.058594 17.125 C 6.742188 17.335938 6.3125 17.273438 6.066406 16.980469 Z M 6.066406 16.980469 "/>
<path style=" stroke:none;fill-rule:nonzero;fill:url(#linear3);" d="M 26.171875 5.585938 L 22.5 3.75 C 22.5 6.234375 20.484375 8.25 18 8.25 C 15.515625 8.25 13.5 6.234375 13.5 3.75 L 9.828125 5.585938 C 9.320312 5.839844 9 6.359375 9 6.925781 L 9 31.5 C 9 31.914062 9.335938 32.25 9.75 32.25 L 26.25 32.25 C 26.664062 32.25 27 31.914062 27 31.5 L 27 6.925781 C 27 6.359375 26.679688 5.839844 26.171875 5.585938 Z M 26.171875 5.585938 "/>
<path style=" stroke:none;fill-rule:nonzero;fill:url(#linear4);" d="M 9 29.25 L 27 29.25 L 27 30.75 L 9 30.75 Z M 9 29.25 "/>
<path style=" stroke:none;fill-rule:nonzero;fill:rgb(100%,100%,100%);fill-opacity:1;" d="M 17.117188 21.75 L 12.917969 21.75 L 12.917969 20.59375 L 14.292969 20.59375 L 14.292969 16.457031 L 12.882812 16.765625 L 12.882812 15.578125 L 15.753906 15 L 15.753906 20.59375 L 17.117188 20.59375 Z M 17.117188 21.75 "/>
<path style=" stroke:none;fill-rule:nonzero;fill:rgb(100%,100%,100%);fill-opacity:1;" d="M 20.960938 21.84375 C 19.367188 21.84375 18.566406 20.722656 18.566406 18.480469 C 18.566406 17.316406 18.78125 16.429688 19.214844 15.820312 C 19.648438 15.210938 20.273438 14.90625 21.09375 14.90625 C 22.652344 14.90625 23.433594 16.046875 23.433594 18.328125 C 23.433594 19.460938 23.21875 20.332031 22.792969 20.9375 C 22.367188 21.542969 21.757812 21.84375 20.960938 21.84375 Z M 21.027344 16.035156 C 20.390625 16.035156 20.070312 16.835938 20.070312 18.441406 C 20.070312 19.957031 20.382812 20.710938 21.007812 20.710938 C 21.621094 20.710938 21.925781 19.929688 21.925781 18.371094 C 21.925781 16.8125 21.628906 16.035156 21.027344 16.035156 Z M 21.027344 16.035156 "/>
</g>
</svg>
